<mxfile host="app.diagrams.net" modified="2021-10-02T15:13:34.210Z" agent="5.0 (Macintosh; Intel Mac OS X 10_15_7) AppleWebKit/537.36 (KHTML, like Gecko) Chrome/92.0.4515.159 Safari/537.36" etag="vFT9Bz8yKBR-ggmbZeNR" version="15.4.1" type="github">
  <diagram id="3mQBQ0XxMF1yLaPgtmqg" name="Page-1">
    <mxGraphModel dx="946" dy="543" grid="1" gridSize="10" guides="1" tooltips="1" connect="1" arrows="1" fold="1" page="1" pageScale="1" pageWidth="827" pageHeight="1169" math="0" shadow="0">
      <root>
        <mxCell id="0" />
        <mxCell id="1" parent="0" />
        <mxCell id="o3MpBTfQim7i_-c9VP1W-3" value="" style="edgeStyle=orthogonalEdgeStyle;rounded=0;orthogonalLoop=1;jettySize=auto;html=1;" edge="1" parent="1" source="o3MpBTfQim7i_-c9VP1W-1" target="o3MpBTfQim7i_-c9VP1W-2">
          <mxGeometry relative="1" as="geometry" />
        </mxCell>
        <mxCell id="o3MpBTfQim7i_-c9VP1W-1" value="分配内存" style="rounded=0;whiteSpace=wrap;html=1;" vertex="1" parent="1">
          <mxGeometry x="110" y="170" width="60" height="20" as="geometry" />
        </mxCell>
        <mxCell id="o3MpBTfQim7i_-c9VP1W-5" value="" style="edgeStyle=orthogonalEdgeStyle;rounded=0;orthogonalLoop=1;jettySize=auto;html=1;" edge="1" parent="1" source="o3MpBTfQim7i_-c9VP1W-2" target="o3MpBTfQim7i_-c9VP1W-4">
          <mxGeometry relative="1" as="geometry" />
        </mxCell>
        <mxCell id="o3MpBTfQim7i_-c9VP1W-6" style="edgeStyle=orthogonalEdgeStyle;rounded=0;orthogonalLoop=1;jettySize=auto;html=1;exitX=1;exitY=0.25;exitDx=0;exitDy=0;entryX=0;entryY=0.5;entryDx=0;entryDy=0;" edge="1" parent="1" source="o3MpBTfQim7i_-c9VP1W-2" target="o3MpBTfQim7i_-c9VP1W-9">
          <mxGeometry relative="1" as="geometry">
            <mxPoint x="280" y="140" as="targetPoint" />
          </mxGeometry>
        </mxCell>
        <mxCell id="o3MpBTfQim7i_-c9VP1W-7" style="edgeStyle=orthogonalEdgeStyle;rounded=0;orthogonalLoop=1;jettySize=auto;html=1;exitX=1;exitY=0.75;exitDx=0;exitDy=0;entryX=0;entryY=0.5;entryDx=0;entryDy=0;" edge="1" parent="1" source="o3MpBTfQim7i_-c9VP1W-2" target="o3MpBTfQim7i_-c9VP1W-8">
          <mxGeometry relative="1" as="geometry">
            <mxPoint x="280" y="220" as="targetPoint" />
          </mxGeometry>
        </mxCell>
        <mxCell id="o3MpBTfQim7i_-c9VP1W-2" value="判断大小" style="whiteSpace=wrap;html=1;rounded=0;" vertex="1" parent="1">
          <mxGeometry x="200" y="165" width="60" height="30" as="geometry" />
        </mxCell>
        <mxCell id="o3MpBTfQim7i_-c9VP1W-12" value="" style="edgeStyle=orthogonalEdgeStyle;rounded=0;orthogonalLoop=1;jettySize=auto;html=1;" edge="1" parent="1" source="o3MpBTfQim7i_-c9VP1W-4" target="o3MpBTfQim7i_-c9VP1W-10">
          <mxGeometry relative="1" as="geometry" />
        </mxCell>
        <mxCell id="o3MpBTfQim7i_-c9VP1W-4" value="smallbin_size" style="whiteSpace=wrap;html=1;rounded=0;" vertex="1" parent="1">
          <mxGeometry x="300" y="165" width="100" height="30" as="geometry" />
        </mxCell>
        <mxCell id="o3MpBTfQim7i_-c9VP1W-13" value="" style="edgeStyle=orthogonalEdgeStyle;rounded=0;orthogonalLoop=1;jettySize=auto;html=1;" edge="1" parent="1" source="o3MpBTfQim7i_-c9VP1W-8" target="o3MpBTfQim7i_-c9VP1W-10">
          <mxGeometry relative="1" as="geometry" />
        </mxCell>
        <mxCell id="o3MpBTfQim7i_-c9VP1W-8" value="unsortedbin_size" style="rounded=0;whiteSpace=wrap;html=1;" vertex="1" parent="1">
          <mxGeometry x="300" y="220" width="100" height="30" as="geometry" />
        </mxCell>
        <mxCell id="o3MpBTfQim7i_-c9VP1W-11" value="" style="edgeStyle=orthogonalEdgeStyle;rounded=0;orthogonalLoop=1;jettySize=auto;html=1;" edge="1" parent="1" source="o3MpBTfQim7i_-c9VP1W-9" target="o3MpBTfQim7i_-c9VP1W-10">
          <mxGeometry relative="1" as="geometry" />
        </mxCell>
        <mxCell id="o3MpBTfQim7i_-c9VP1W-9" value="fastbin_size" style="rounded=0;whiteSpace=wrap;html=1;" vertex="1" parent="1">
          <mxGeometry x="300" y="110" width="100" height="30" as="geometry" />
        </mxCell>
        <mxCell id="o3MpBTfQim7i_-c9VP1W-10" value="把链上trunk放入tcache" style="whiteSpace=wrap;html=1;rounded=0;" vertex="1" parent="1">
          <mxGeometry x="430" y="165" width="70" height="30" as="geometry" />
        </mxCell>
      </root>
    </mxGraphModel>
  </diagram>
</mxfile>
